<svg width="536" height="43" viewBox="0 0 536 43" fill="none" xmlns="http://www.w3.org/2000/svg">
<path d="M313 17H522.5V22H313V17Z" fill="#515151"/>
<path d="M313 22H536V26H313V22Z" fill="#515151"/>
<rect width="499" height="43" fill="#353535"/>
<path d="M0 7H499" stroke="#646464" stroke-width="2"/>
<path d="M0 35L499 35" stroke="#646464" stroke-width="2"/>
<line x1="32.5" y1="34" x2="32.5" y2="30" stroke="#FF5050"/>
<line x1="52.5" y1="34" x2="52.5" y2="30" stroke="#FF5050"/>
<line x1="72.5" y1="34" x2="72.5" y2="30" stroke="#FF5050"/>
<line x1="92.5" y1="34" x2="92.5" y2="30" stroke="#FF5050"/>
<line x1="112.5" y1="34" x2="112.5" y2="30" stroke="#FF5050"/>
<line x1="132.5" y1="34" x2="132.5" y2="30" stroke="#FF5050"/>
<line x1="152.5" y1="34" x2="152.5" y2="30" stroke="#FF5050"/>
<line x1="172.5" y1="34" x2="172.5" y2="30" stroke="#FF5050"/>
<line x1="192.5" y1="34" x2="192.5" y2="30" stroke="#FF5050"/>
<line x1="212.5" y1="34" x2="212.5" y2="30" stroke="#FF5050"/>
<line x1="232.5" y1="34" x2="232.5" y2="30" stroke="#FF5050"/>
<line x1="252.5" y1="34" x2="252.5" y2="30" stroke="#FF5050"/>
<line x1="272.5" y1="34" x2="272.5" y2="30" stroke="#FF5050"/>
<line x1="292.5" y1="34" x2="292.5" y2="30" stroke="#FF5050"/>
<line x1="312.5" y1="34" x2="312.5" y2="30" stroke="#FF5050"/>
<line x1="332.5" y1="34" x2="332.5" y2="30" stroke="#FF5050"/>
<line x1="352.5" y1="34" x2="352.5" y2="30" stroke="#FF5050"/>
<line x1="372.5" y1="34" x2="372.5" y2="30" stroke="#FF5050"/>
<line x1="392.5" y1="34" x2="392.5" y2="30" stroke="#FF5050"/>
<line x1="412.5" y1="34" x2="412.5" y2="30" stroke="#FF5050"/>
<line x1="432.5" y1="34" x2="432.5" y2="30" stroke="#FF5050"/>
<line x1="452.5" y1="34" x2="452.5" y2="30" stroke="#FF5050"/>
<g opacity="0.6">
<line x1="42.5" y1="34" x2="42.5" y2="30" stroke="#004FEA"/>
<line x1="62.5" y1="34" x2="62.5" y2="30" stroke="#004FEA"/>
<line x1="82.5" y1="34" x2="82.5" y2="30" stroke="#004FEA"/>
<line x1="102.5" y1="34" x2="102.5" y2="30" stroke="#004FEA"/>
<line x1="122.5" y1="34" x2="122.5" y2="30" stroke="#004FEA"/>
<line x1="142.5" y1="34" x2="142.5" y2="30" stroke="#004FEA"/>
<line x1="162.5" y1="34" x2="162.5" y2="30" stroke="#004FEA"/>
<line x1="182.5" y1="34" x2="182.5" y2="30" stroke="#004FEA"/>
<line x1="202.5" y1="34" x2="202.5" y2="30" stroke="#004FEA"/>
<line x1="222.5" y1="34" x2="222.5" y2="30" stroke="#004FEA"/>
<line x1="242.5" y1="34" x2="242.5" y2="30" stroke="#004FEA"/>
<line x1="262.5" y1="34" x2="262.5" y2="30" stroke="#004FEA"/>
<line x1="282.5" y1="34" x2="282.5" y2="30" stroke="#004FEA"/>
<line x1="302.5" y1="34" x2="302.5" y2="30" stroke="#004FEA"/>
<line x1="322.5" y1="34" x2="322.5" y2="30" stroke="#004FEA"/>
<line x1="342.5" y1="34" x2="342.5" y2="30" stroke="#004FEA"/>
<line x1="362.5" y1="34" x2="362.5" y2="30" stroke="#004FEA"/>
<line x1="382.5" y1="34" x2="382.5" y2="30" stroke="#004FEA"/>
<line x1="402.5" y1="34" x2="402.5" y2="30" stroke="#004FEA"/>
<line x1="422.5" y1="34" x2="422.5" y2="30" stroke="#004FEA"/>
<line x1="442.5" y1="34" x2="442.5" y2="30" stroke="#004FEA"/>
<line x1="462.5" y1="34" x2="462.5" y2="30" stroke="#004FEA"/>
</g>
<g opacity="0.2">
<line x1="36.5" y1="34" x2="36.5" y2="32" stroke="white"/>
<line x1="56.5" y1="34" x2="56.5" y2="32" stroke="white"/>
<line x1="76.5" y1="34" x2="76.5" y2="32" stroke="white"/>
<line x1="96.5" y1="34" x2="96.5" y2="32" stroke="white"/>
<line x1="116.5" y1="34" x2="116.5" y2="32" stroke="white"/>
<line x1="136.5" y1="34" x2="136.5" y2="32" stroke="white"/>
<line x1="156.5" y1="34" x2="156.5" y2="32" stroke="white"/>
<line x1="176.5" y1="34" x2="176.5" y2="32" stroke="white"/>
<line x1="196.5" y1="34" x2="196.5" y2="32" stroke="white"/>
<line x1="216.5" y1="34" x2="216.5" y2="32" stroke="white"/>
<line x1="236.5" y1="34" x2="236.5" y2="32" stroke="white"/>
<line x1="256.5" y1="34" x2="256.5" y2="32" stroke="white"/>
<line x1="276.5" y1="34" x2="276.5" y2="32" stroke="white"/>
<line x1="296.5" y1="34" x2="296.5" y2="32" stroke="white"/>
<line x1="316.5" y1="34" x2="316.5" y2="32" stroke="white"/>
<line x1="336.5" y1="34" x2="336.5" y2="32" stroke="white"/>
<line x1="356.5" y1="34" x2="356.5" y2="32" stroke="white"/>
<line x1="376.5" y1="34" x2="376.5" y2="32" stroke="white"/>
<line x1="396.5" y1="34" x2="396.5" y2="32" stroke="white"/>
<line x1="416.5" y1="34" x2="416.5" y2="32" stroke="white"/>
<line x1="436.5" y1="34" x2="436.5" y2="32" stroke="white"/>
<line x1="456.5" y1="34" x2="456.5" y2="32" stroke="white"/>
</g>
<g opacity="0.2">
<line x1="38.5" y1="34" x2="38.5" y2="32" stroke="white"/>
<line x1="58.5" y1="34" x2="58.5" y2="32" stroke="white"/>
<line x1="78.5" y1="34" x2="78.5" y2="32" stroke="white"/>
<line x1="98.5" y1="34" x2="98.5" y2="32" stroke="white"/>
<line x1="118.5" y1="34" x2="118.5" y2="32" stroke="white"/>
<line x1="138.5" y1="34" x2="138.5" y2="32" stroke="white"/>
<line x1="158.5" y1="34" x2="158.5" y2="32" stroke="white"/>
<line x1="178.5" y1="34" x2="178.5" y2="32" stroke="white"/>
<line x1="198.5" y1="34" x2="198.5" y2="32" stroke="white"/>
<line x1="218.5" y1="34" x2="218.5" y2="32" stroke="white"/>
<line x1="238.5" y1="34" x2="238.5" y2="32" stroke="white"/>
<line x1="258.5" y1="34" x2="258.5" y2="32" stroke="white"/>
<line x1="278.5" y1="34" x2="278.5" y2="32" stroke="white"/>
<line x1="298.5" y1="34" x2="298.5" y2="32" stroke="white"/>
<line x1="318.5" y1="34" x2="318.5" y2="32" stroke="white"/>
<line x1="338.5" y1="34" x2="338.5" y2="32" stroke="white"/>
<line x1="358.5" y1="34" x2="358.5" y2="32" stroke="white"/>
<line x1="378.5" y1="34" x2="378.5" y2="32" stroke="white"/>
<line x1="398.5" y1="34" x2="398.5" y2="32" stroke="white"/>
<line x1="418.5" y1="34" x2="418.5" y2="32" stroke="white"/>
<line x1="438.5" y1="34" x2="438.5" y2="32" stroke="white"/>
<line x1="458.5" y1="34" x2="458.5" y2="32" stroke="white"/>
</g>
<g opacity="0.2">
<line x1="40.5" y1="34" x2="40.5" y2="32" stroke="white"/>
<line x1="60.5" y1="34" x2="60.5" y2="32" stroke="white"/>
<line x1="80.5" y1="34" x2="80.5" y2="32" stroke="white"/>
<line x1="100.5" y1="34" x2="100.5" y2="32" stroke="white"/>
<line x1="120.5" y1="34" x2="120.5" y2="32" stroke="white"/>
<line x1="140.5" y1="34" x2="140.5" y2="32" stroke="white"/>
<line x1="160.5" y1="34" x2="160.5" y2="32" stroke="white"/>
<line x1="180.5" y1="34" x2="180.5" y2="32" stroke="white"/>
<line x1="200.5" y1="34" x2="200.5" y2="32" stroke="white"/>
<line x1="220.5" y1="34" x2="220.5" y2="32" stroke="white"/>
<line x1="240.5" y1="34" x2="240.5" y2="32" stroke="white"/>
<line x1="260.5" y1="34" x2="260.5" y2="32" stroke="white"/>
<line x1="280.5" y1="34" x2="280.5" y2="32" stroke="white"/>
<line x1="300.5" y1="34" x2="300.5" y2="32" stroke="white"/>
<line x1="320.5" y1="34" x2="320.5" y2="32" stroke="white"/>
<line x1="340.5" y1="34" x2="340.5" y2="32" stroke="white"/>
<line x1="360.5" y1="34" x2="360.5" y2="32" stroke="white"/>
<line x1="380.5" y1="34" x2="380.5" y2="32" stroke="white"/>
<line x1="400.5" y1="34" x2="400.5" y2="32" stroke="white"/>
<line x1="420.5" y1="34" x2="420.5" y2="32" stroke="white"/>
<line x1="440.5" y1="34" x2="440.5" y2="32" stroke="white"/>
<line x1="460.5" y1="34" x2="460.5" y2="32" stroke="white"/>
</g>
<g opacity="0.2">
<line x1="34.5" y1="34" x2="34.5" y2="32" stroke="white"/>
<line x1="54.5" y1="34" x2="54.5" y2="32" stroke="white"/>
<line x1="74.5" y1="34" x2="74.5" y2="32" stroke="white"/>
<line x1="94.5" y1="34" x2="94.5" y2="32" stroke="white"/>
<line x1="114.5" y1="34" x2="114.5" y2="32" stroke="white"/>
<line x1="134.5" y1="34" x2="134.5" y2="32" stroke="white"/>
<line x1="154.5" y1="34" x2="154.5" y2="32" stroke="white"/>
<line x1="174.5" y1="34" x2="174.5" y2="32" stroke="white"/>
<line x1="194.5" y1="34" x2="194.5" y2="32" stroke="white"/>
<line x1="214.5" y1="34" x2="214.5" y2="32" stroke="white"/>
<line x1="234.5" y1="34" x2="234.5" y2="32" stroke="white"/>
<line x1="254.5" y1="34" x2="254.5" y2="32" stroke="white"/>
<line x1="274.5" y1="34" x2="274.5" y2="32" stroke="white"/>
<line x1="294.5" y1="34" x2="294.5" y2="32" stroke="white"/>
<line x1="314.5" y1="34" x2="314.5" y2="32" stroke="white"/>
<line x1="334.5" y1="34" x2="334.5" y2="32" stroke="white"/>
<line x1="354.5" y1="34" x2="354.5" y2="32" stroke="white"/>
<line x1="374.5" y1="34" x2="374.5" y2="32" stroke="white"/>
<line x1="394.5" y1="34" x2="394.5" y2="32" stroke="white"/>
<line x1="414.5" y1="34" x2="414.5" y2="32" stroke="white"/>
<line x1="434.5" y1="34" x2="434.5" y2="32" stroke="white"/>
<line x1="454.5" y1="34" x2="454.5" y2="32" stroke="white"/>
</g>
<g opacity="0.2">
<line x1="46.5" y1="34" x2="46.5" y2="32" stroke="white"/>
<line x1="66.5" y1="34" x2="66.5" y2="32" stroke="white"/>
<line x1="86.5" y1="34" x2="86.5" y2="32" stroke="white"/>
<line x1="106.5" y1="34" x2="106.5" y2="32" stroke="white"/>
<line x1="126.5" y1="34" x2="126.5" y2="32" stroke="white"/>
<line x1="146.5" y1="34" x2="146.5" y2="32" stroke="white"/>
<line x1="166.5" y1="34" x2="166.5" y2="32" stroke="white"/>
<line x1="186.5" y1="34" x2="186.5" y2="32" stroke="white"/>
<line x1="206.5" y1="34" x2="206.5" y2="32" stroke="white"/>
<line x1="226.5" y1="34" x2="226.5" y2="32" stroke="white"/>
<line x1="246.5" y1="34" x2="246.5" y2="32" stroke="white"/>
<line x1="266.5" y1="34" x2="266.5" y2="32" stroke="white"/>
<line x1="286.5" y1="34" x2="286.5" y2="32" stroke="white"/>
<line x1="306.5" y1="34" x2="306.5" y2="32" stroke="white"/>
<line x1="326.5" y1="34" x2="326.5" y2="32" stroke="white"/>
<line x1="346.5" y1="34" x2="346.5" y2="32" stroke="white"/>
<line x1="366.5" y1="34" x2="366.5" y2="32" stroke="white"/>
<line x1="386.5" y1="34" x2="386.5" y2="32" stroke="white"/>
<line x1="406.5" y1="34" x2="406.5" y2="32" stroke="white"/>
<line x1="426.5" y1="34" x2="426.5" y2="32" stroke="white"/>
<line x1="446.5" y1="34" x2="446.5" y2="32" stroke="white"/>
<line x1="466.5" y1="34" x2="466.5" y2="32" stroke="white"/>
</g>
<g opacity="0.2">
<line x1="48.5" y1="34" x2="48.5" y2="32" stroke="white"/>
<line x1="68.5" y1="34" x2="68.5" y2="32" stroke="white"/>
<line x1="88.5" y1="34" x2="88.5" y2="32" stroke="white"/>
<line x1="108.5" y1="34" x2="108.5" y2="32" stroke="white"/>
<line x1="128.5" y1="34" x2="128.5" y2="32" stroke="white"/>
<line x1="148.5" y1="34" x2="148.5" y2="32" stroke="white"/>
<line x1="168.5" y1="34" x2="168.5" y2="32" stroke="white"/>
<line x1="188.5" y1="34" x2="188.5" y2="32" stroke="white"/>
<line x1="208.5" y1="34" x2="208.5" y2="32" stroke="white"/>
<line x1="228.5" y1="34" x2="228.5" y2="32" stroke="white"/>
<line x1="248.5" y1="34" x2="248.5" y2="32" stroke="white"/>
<line x1="268.5" y1="34" x2="268.5" y2="32" stroke="white"/>
<line x1="288.5" y1="34" x2="288.5" y2="32" stroke="white"/>
<line x1="308.5" y1="34" x2="308.5" y2="32" stroke="white"/>
<line x1="328.5" y1="34" x2="328.5" y2="32" stroke="white"/>
<line x1="348.5" y1="34" x2="348.5" y2="32" stroke="white"/>
<line x1="368.5" y1="34" x2="368.5" y2="32" stroke="white"/>
<line x1="388.5" y1="34" x2="388.5" y2="32" stroke="white"/>
<line x1="408.5" y1="34" x2="408.5" y2="32" stroke="white"/>
<line x1="428.5" y1="34" x2="428.5" y2="32" stroke="white"/>
<line x1="448.5" y1="34" x2="448.5" y2="32" stroke="white"/>
<line x1="468.5" y1="34" x2="468.5" y2="32" stroke="white"/>
</g>
<g opacity="0.2">
<line x1="50.5" y1="34" x2="50.5" y2="32" stroke="white"/>
<line x1="70.5" y1="34" x2="70.5" y2="32" stroke="white"/>
<line x1="90.5" y1="34" x2="90.5" y2="32" stroke="white"/>
<line x1="110.5" y1="34" x2="110.5" y2="32" stroke="white"/>
<line x1="130.5" y1="34" x2="130.5" y2="32" stroke="white"/>
<line x1="150.5" y1="34" x2="150.5" y2="32" stroke="white"/>
<line x1="170.5" y1="34" x2="170.5" y2="32" stroke="white"/>
<line x1="190.5" y1="34" x2="190.5" y2="32" stroke="white"/>
<line x1="210.5" y1="34" x2="210.5" y2="32" stroke="white"/>
<line x1="230.5" y1="34" x2="230.5" y2="32" stroke="white"/>
<line x1="250.5" y1="34" x2="250.5" y2="32" stroke="white"/>
<line x1="270.5" y1="34" x2="270.5" y2="32" stroke="white"/>
<line x1="290.5" y1="34" x2="290.5" y2="32" stroke="white"/>
<line x1="310.5" y1="34" x2="310.5" y2="32" stroke="white"/>
<line x1="330.5" y1="34" x2="330.5" y2="32" stroke="white"/>
<line x1="350.5" y1="34" x2="350.5" y2="32" stroke="white"/>
<line x1="370.5" y1="34" x2="370.5" y2="32" stroke="white"/>
<line x1="390.5" y1="34" x2="390.5" y2="32" stroke="white"/>
<line x1="410.5" y1="34" x2="410.5" y2="32" stroke="white"/>
<line x1="430.5" y1="34" x2="430.5" y2="32" stroke="white"/>
<line x1="450.5" y1="34" x2="450.5" y2="32" stroke="white"/>
<line x1="470.5" y1="34" x2="470.5" y2="32" stroke="white"/>
</g>
<g opacity="0.2">
<line x1="44.5" y1="34" x2="44.5" y2="32" stroke="white"/>
<line x1="64.5" y1="34" x2="64.5" y2="32" stroke="white"/>
<line x1="84.5" y1="34" x2="84.5" y2="32" stroke="white"/>
<line x1="104.5" y1="34" x2="104.5" y2="32" stroke="white"/>
<line x1="124.5" y1="34" x2="124.5" y2="32" stroke="white"/>
<line x1="144.5" y1="34" x2="144.5" y2="32" stroke="white"/>
<line x1="164.5" y1="34" x2="164.5" y2="32" stroke="white"/>
<line x1="184.5" y1="34" x2="184.5" y2="32" stroke="white"/>
<line x1="204.5" y1="34" x2="204.5" y2="32" stroke="white"/>
<line x1="224.5" y1="34" x2="224.5" y2="32" stroke="white"/>
<line x1="244.5" y1="34" x2="244.5" y2="32" stroke="white"/>
<line x1="264.5" y1="34" x2="264.5" y2="32" stroke="white"/>
<line x1="284.5" y1="34" x2="284.5" y2="32" stroke="white"/>
<line x1="304.5" y1="34" x2="304.5" y2="32" stroke="white"/>
<line x1="324.5" y1="34" x2="324.5" y2="32" stroke="white"/>
<line x1="344.5" y1="34" x2="344.5" y2="32" stroke="white"/>
<line x1="364.5" y1="34" x2="364.5" y2="32" stroke="white"/>
<line x1="384.5" y1="34" x2="384.5" y2="32" stroke="white"/>
<line x1="404.5" y1="34" x2="404.5" y2="32" stroke="white"/>
<line x1="424.5" y1="34" x2="424.5" y2="32" stroke="white"/>
<line x1="444.5" y1="34" x2="444.5" y2="32" stroke="white"/>
<line x1="464.5" y1="34" x2="464.5" y2="32" stroke="white"/>
</g>
<path d="M30.44 25.2C30.44 24.7467 30.48 24.3413 30.56 23.984C30.64 23.6213 30.76 23.3173 30.92 23.072C31.08 22.8213 31.2827 22.632 31.528 22.504C31.7733 22.3707 32.064 22.304 32.4 22.304C32.7573 22.304 33.0587 22.368 33.304 22.496C33.5547 22.624 33.7573 22.8107 33.912 23.056C34.0667 23.3013 34.1787 23.6053 34.248 23.968C34.3173 24.3253 34.352 24.736 34.352 25.2C34.352 25.6533 34.312 26.0613 34.232 26.424C34.152 26.7813 34.032 27.0853 33.872 27.336C33.712 27.5813 33.5093 27.7707 33.264 27.904C33.0187 28.032 32.728 28.096 32.392 28.096C32.04 28.096 31.7387 28.0267 31.488 27.888C31.2427 27.744 31.04 27.544 30.88 27.288C30.7253 27.032 30.6133 26.728 30.544 26.376C30.4747 26.0187 30.44 25.6267 30.44 25.2ZM33.696 25.2C33.696 24.9173 33.68 24.648 33.648 24.392L31.272 26.56C31.3627 26.864 31.4987 27.1067 31.68 27.288C31.8613 27.4693 32.0987 27.56 32.392 27.56C32.8613 27.56 33.1947 27.3653 33.392 26.976C33.5947 26.5867 33.696 25.9947 33.696 25.2ZM31.104 25.2C31.104 25.3333 31.1067 25.4613 31.112 25.584C31.1227 25.7067 31.1333 25.8267 31.144 25.944L33.528 23.784C33.4373 23.496 33.3013 23.2667 33.12 23.096C32.944 22.9253 32.704 22.84 32.4 22.84C31.9253 22.84 31.5893 23.0373 31.392 23.432C31.2 23.8213 31.104 24.4107 31.104 25.2Z" fill="white"/>
<path d="M50.1176 27.424H51.3736V23.216L50.0936 24.112L49.7816 23.656L51.5416 22.4H51.9896V27.424H53.2216V28H50.1176V27.424Z" fill="white"/>
<path d="M74.1016 23.816C74.1016 24.3067 73.8696 24.8533 73.4056 25.456C72.9416 26.0587 72.2936 26.7147 71.4616 27.424H74.2776V28H70.7256V27.424C70.8269 27.328 70.9656 27.2027 71.1416 27.048C71.3176 26.8933 71.5069 26.7227 71.7096 26.536C71.9122 26.344 72.1176 26.1387 72.3256 25.92C72.5389 25.7013 72.7309 25.4773 72.9016 25.248C73.0722 25.0187 73.2109 24.7893 73.3176 24.56C73.4242 24.3307 73.4776 24.1093 73.4776 23.896C73.4776 23.576 73.3922 23.3253 73.2216 23.144C73.0562 22.9573 72.8056 22.864 72.4696 22.864C72.1816 22.864 71.9389 22.896 71.7416 22.96C71.5442 23.024 71.3656 23.1173 71.2056 23.24L70.9336 22.8C71.1736 22.6293 71.4269 22.504 71.6936 22.424C71.9656 22.344 72.2616 22.304 72.5816 22.304C73.0829 22.304 73.4616 22.44 73.7176 22.712C73.9736 22.984 74.1016 23.352 74.1016 23.816Z" fill="white"/>
<path d="M92.0856 27.544C92.2989 27.544 92.4936 27.5173 92.6696 27.464C92.8509 27.4053 93.0082 27.3253 93.1416 27.224C93.2749 27.1227 93.3789 27 93.4536 26.856C93.5282 26.712 93.5656 26.552 93.5656 26.376C93.5656 26.008 93.4349 25.7467 93.1736 25.592C92.9176 25.432 92.5709 25.352 92.1336 25.352H91.6216V24.968L93.1976 22.976H90.8056V22.4H93.9656V22.976L92.3896 24.824H92.5176C92.7629 24.824 92.9869 24.8587 93.1896 24.928C93.3922 24.9973 93.5682 25.096 93.7176 25.224C93.8669 25.352 93.9816 25.5067 94.0616 25.688C94.1469 25.8693 94.1896 26.0747 94.1896 26.304C94.1896 26.592 94.1336 26.848 94.0216 27.072C93.9096 27.296 93.7576 27.4853 93.5656 27.64C93.3736 27.7893 93.1469 27.904 92.8856 27.984C92.6296 28.0587 92.3549 28.096 92.0616 28.096C91.7896 28.096 91.5522 28.0747 91.3496 28.032C91.1522 27.9947 90.9709 27.9467 90.8056 27.888L90.9656 27.328C91.1042 27.392 91.2669 27.4453 91.4536 27.488C91.6402 27.5253 91.8509 27.544 92.0856 27.544Z" fill="white"/>
<path d="M114.742 26.256H113.662V28H113.038V26.256H110.454V25.792L113.134 22.4H113.662V25.728H114.742V26.256ZM113.038 23.4L111.19 25.728H113.038V23.4Z" fill="white"/>
<path d="M132.15 27.536C132.352 27.536 132.539 27.512 132.71 27.464C132.88 27.4107 133.024 27.3333 133.142 27.232C133.264 27.1253 133.358 26.9947 133.422 26.84C133.491 26.6853 133.526 26.504 133.526 26.296C133.526 25.912 133.387 25.6213 133.11 25.424C132.838 25.2213 132.464 25.12 131.99 25.12L131.238 25.16V22.4H133.982V22.976H131.838V24.6L132.238 24.584C132.83 24.584 133.296 24.728 133.638 25.016C133.979 25.304 134.15 25.7147 134.15 26.248C134.15 26.5467 134.096 26.8107 133.99 27.04C133.888 27.2693 133.747 27.464 133.566 27.624C133.384 27.7787 133.168 27.896 132.918 27.976C132.672 28.056 132.403 28.096 132.11 28.096C131.95 28.096 131.798 28.0827 131.654 28.056C131.51 28.0347 131.379 28.008 131.262 27.976C131.144 27.9387 131.04 27.9013 130.95 27.864C130.864 27.8213 130.803 27.784 130.766 27.752L131.022 27.232C131.112 27.2853 131.251 27.3493 131.438 27.424C131.624 27.4987 131.862 27.536 132.15 27.536Z" fill="white"/>
<path d="M154.414 26.312C154.414 26.5413 154.371 26.7627 154.286 26.976C154.206 27.1893 154.086 27.3787 153.926 27.544C153.766 27.7093 153.568 27.8427 153.334 27.944C153.099 28.0453 152.827 28.096 152.518 28.096C152.23 28.096 151.968 28.0507 151.734 27.96C151.499 27.8693 151.296 27.7413 151.126 27.576C150.955 27.4053 150.822 27.1973 150.726 26.952C150.635 26.7067 150.59 26.432 150.59 26.128C150.59 25.6267 150.662 25.152 150.806 24.704C150.955 24.256 151.16 23.8613 151.422 23.52C151.688 23.1787 152.003 22.9013 152.366 22.688C152.734 22.4747 153.136 22.3467 153.574 22.304L153.686 22.816C153.35 22.8587 153.04 22.9573 152.758 23.112C152.48 23.2667 152.238 23.4587 152.03 23.688C151.822 23.9173 151.651 24.1707 151.518 24.448C151.39 24.7253 151.307 25.008 151.27 25.296C151.312 25.2267 151.374 25.1547 151.454 25.08C151.539 25.0053 151.638 24.9413 151.75 24.888C151.867 24.8293 151.995 24.7813 152.134 24.744C152.278 24.7067 152.432 24.688 152.598 24.688C152.88 24.688 153.134 24.728 153.358 24.808C153.582 24.8827 153.771 24.992 153.926 25.136C154.086 25.2747 154.206 25.4453 154.286 25.648C154.371 25.8453 154.414 26.0667 154.414 26.312ZM153.758 26.376C153.758 26.0027 153.654 25.7173 153.446 25.52C153.238 25.3227 152.918 25.224 152.486 25.224C152.331 25.224 152.187 25.2427 152.054 25.28C151.92 25.3173 151.8 25.368 151.694 25.432C151.587 25.4907 151.494 25.56 151.414 25.64C151.334 25.72 151.272 25.8 151.23 25.88C151.219 25.9547 151.214 26.0133 151.214 26.056C151.214 26.0987 151.214 26.1493 151.214 26.208C151.214 26.368 151.24 26.5307 151.294 26.696C151.347 26.856 151.427 27 151.534 27.128C151.646 27.256 151.784 27.36 151.95 27.44C152.115 27.52 152.31 27.56 152.534 27.56C152.715 27.56 152.88 27.528 153.03 27.464C153.179 27.4 153.307 27.3147 153.414 27.208C153.526 27.1013 153.611 26.976 153.67 26.832C153.728 26.688 153.758 26.536 153.758 26.376Z" fill="white"/>
<path d="M171.094 28L173.542 22.976H170.654V22.4H174.19V22.92L171.75 28H171.094Z" fill="white"/>
<path d="M190.702 26.64C190.702 25.9947 191.094 25.4747 191.878 25.08C191.728 25 191.59 24.9173 191.462 24.832C191.334 24.7467 191.222 24.6507 191.126 24.544C191.035 24.4373 190.963 24.3147 190.91 24.176C190.856 24.0373 190.83 23.8773 190.83 23.696C190.83 23.4987 190.87 23.3147 190.95 23.144C191.03 22.9733 191.144 22.8267 191.294 22.704C191.443 22.5813 191.624 22.4853 191.838 22.416C192.051 22.3413 192.288 22.304 192.55 22.304C192.795 22.304 193.016 22.336 193.214 22.4C193.416 22.464 193.587 22.5547 193.726 22.672C193.87 22.784 193.979 22.9173 194.054 23.072C194.128 23.2267 194.166 23.392 194.166 23.568C194.166 23.872 194.088 24.152 193.934 24.408C193.784 24.6587 193.542 24.888 193.206 25.096C193.36 25.176 193.504 25.2613 193.638 25.352C193.771 25.4427 193.886 25.544 193.982 25.656C194.083 25.768 194.16 25.896 194.214 26.04C194.272 26.1787 194.302 26.3387 194.302 26.52C194.302 26.744 194.262 26.9547 194.182 27.152C194.102 27.344 193.982 27.5093 193.822 27.648C193.667 27.7867 193.475 27.896 193.246 27.976C193.016 28.056 192.75 28.096 192.446 28.096C192.163 28.096 191.912 28.056 191.694 27.976C191.475 27.896 191.291 27.7893 191.142 27.656C190.998 27.5227 190.888 27.368 190.814 27.192C190.739 27.016 190.702 26.832 190.702 26.64ZM193.67 26.56C193.67 26.4053 193.632 26.2693 193.558 26.152C193.488 26.0293 193.392 25.92 193.27 25.824C193.152 25.728 193.016 25.64 192.862 25.56C192.707 25.48 192.547 25.4 192.382 25.32C191.998 25.5067 191.723 25.712 191.558 25.936C191.398 26.16 191.318 26.3707 191.318 26.568C191.318 26.7013 191.342 26.8293 191.39 26.952C191.443 27.0693 191.518 27.1733 191.614 27.264C191.715 27.3547 191.838 27.4267 191.982 27.48C192.131 27.5333 192.302 27.56 192.494 27.56C192.648 27.56 192.795 27.5387 192.934 27.496C193.078 27.4533 193.203 27.392 193.31 27.312C193.422 27.2267 193.51 27.1227 193.574 27C193.638 26.872 193.67 26.7253 193.67 26.56ZM191.454 23.672C191.454 23.8213 191.488 23.9547 191.558 24.072C191.627 24.1893 191.718 24.296 191.83 24.392C191.947 24.4827 192.08 24.568 192.23 24.648C192.379 24.7227 192.536 24.7973 192.702 24.872C192.984 24.6853 193.195 24.4987 193.334 24.312C193.478 24.1253 193.55 23.92 193.55 23.696C193.55 23.5627 193.52 23.4453 193.462 23.344C193.408 23.2373 193.334 23.1467 193.238 23.072C193.147 22.9973 193.04 22.9413 192.918 22.904C192.795 22.8613 192.667 22.84 192.534 22.84C192.363 22.84 192.211 22.864 192.078 22.912C191.944 22.96 191.832 23.024 191.742 23.104C191.651 23.184 191.579 23.2747 191.526 23.376C191.478 23.472 191.454 23.5707 191.454 23.672Z" fill="white"/>
<path d="M210.59 24.088C210.59 23.8427 210.63 23.6133 210.71 23.4C210.79 23.1813 210.91 22.992 211.07 22.832C211.235 22.6667 211.438 22.5387 211.678 22.448C211.918 22.352 212.198 22.304 212.518 22.304C212.816 22.304 213.083 22.352 213.318 22.448C213.552 22.544 213.75 22.68 213.91 22.856C214.075 23.0267 214.2 23.2373 214.286 23.488C214.371 23.7333 214.414 24.008 214.414 24.312C214.414 24.9093 214.339 25.4347 214.19 25.888C214.04 26.3413 213.832 26.7253 213.566 27.04C213.299 27.3547 212.982 27.6 212.614 27.776C212.251 27.952 211.856 28.0587 211.43 28.096L211.31 27.592C211.662 27.5547 211.976 27.4693 212.254 27.336C212.531 27.2027 212.771 27.032 212.974 26.824C213.176 26.616 213.342 26.376 213.47 26.104C213.598 25.832 213.686 25.5413 213.734 25.232C213.648 25.3227 213.56 25.4 213.47 25.464C213.384 25.5227 213.288 25.5707 213.182 25.608C213.075 25.6453 212.958 25.672 212.83 25.688C212.702 25.704 212.555 25.712 212.39 25.712C212.144 25.712 211.912 25.6747 211.694 25.6C211.475 25.5253 211.283 25.4187 211.118 25.28C210.958 25.136 210.83 24.9653 210.734 24.768C210.638 24.5653 210.59 24.3387 210.59 24.088ZM211.246 24.024C211.246 24.408 211.36 24.696 211.59 24.888C211.824 25.08 212.134 25.176 212.518 25.176C212.822 25.176 213.083 25.1307 213.302 25.04C213.526 24.944 213.683 24.8267 213.774 24.688C213.784 24.6133 213.79 24.5547 213.79 24.512C213.79 24.464 213.79 24.4107 213.79 24.352C213.79 24.1653 213.763 23.9813 213.71 23.8C213.662 23.6187 213.584 23.456 213.478 23.312C213.371 23.168 213.232 23.0533 213.062 22.968C212.896 22.8773 212.696 22.832 212.462 22.832C212.078 22.832 211.779 22.936 211.566 23.144C211.352 23.352 211.246 23.6453 211.246 24.024Z" fill="white"/>
<path d="M227.719 27.424H228.975V23.216L227.695 24.112L227.383 23.656L229.143 22.4H229.591V27.424H230.823V28H227.719V27.424ZM231.94 25.2C231.94 24.7467 231.98 24.3413 232.06 23.984C232.14 23.6213 232.26 23.3173 232.42 23.072C232.58 22.8213 232.783 22.632 233.028 22.504C233.273 22.3707 233.564 22.304 233.9 22.304C234.257 22.304 234.559 22.368 234.804 22.496C235.055 22.624 235.257 22.8107 235.412 23.056C235.567 23.3013 235.679 23.6053 235.748 23.968C235.817 24.3253 235.852 24.736 235.852 25.2C235.852 25.6533 235.812 26.0613 235.732 26.424C235.652 26.7813 235.532 27.0853 235.372 27.336C235.212 27.5813 235.009 27.7707 234.764 27.904C234.519 28.032 234.228 28.096 233.892 28.096C233.54 28.096 233.239 28.0267 232.988 27.888C232.743 27.744 232.54 27.544 232.38 27.288C232.225 27.032 232.113 26.728 232.044 26.376C231.975 26.0187 231.94 25.6267 231.94 25.2ZM235.196 25.2C235.196 24.9173 235.18 24.648 235.148 24.392L232.772 26.56C232.863 26.864 232.999 27.1067 233.18 27.288C233.361 27.4693 233.599 27.56 233.892 27.56C234.361 27.56 234.695 27.3653 234.892 26.976C235.095 26.5867 235.196 25.9947 235.196 25.2ZM232.604 25.2C232.604 25.3333 232.607 25.4613 232.612 25.584C232.623 25.7067 232.633 25.8267 232.644 25.944L235.028 23.784C234.937 23.496 234.801 23.2667 234.62 23.096C234.444 22.9253 234.204 22.84 233.9 22.84C233.425 22.84 233.089 23.0373 232.892 23.432C232.7 23.8213 232.604 24.4107 232.604 25.2Z" fill="white"/>
<path d="M248.719 27.424H249.975V23.216L248.695 24.112L248.383 23.656L250.143 22.4H250.591V27.424H251.823V28H248.719V27.424ZM253.516 27.424H254.772V23.216L253.492 24.112L253.18 23.656L254.94 22.4H255.388V27.424H256.62V28H253.516V27.424Z" fill="white"/>
<path d="M268.719 27.424H269.975V23.216L268.695 24.112L268.383 23.656L270.143 22.4H270.591V27.424H271.823V28H268.719V27.424ZM276.5 23.816C276.5 24.3067 276.268 24.8533 275.804 25.456C275.34 26.0587 274.692 26.7147 273.86 27.424H276.676V28H273.124V27.424C273.225 27.328 273.364 27.2027 273.54 27.048C273.716 26.8933 273.905 26.7227 274.108 26.536C274.311 26.344 274.516 26.1387 274.724 25.92C274.937 25.7013 275.129 25.4773 275.3 25.248C275.471 25.0187 275.609 24.7893 275.716 24.56C275.823 24.3307 275.876 24.1093 275.876 23.896C275.876 23.576 275.791 23.3253 275.62 23.144C275.455 22.9573 275.204 22.864 274.868 22.864C274.58 22.864 274.337 22.896 274.14 22.96C273.943 23.024 273.764 23.1173 273.604 23.24L273.332 22.8C273.572 22.6293 273.825 22.504 274.092 22.424C274.364 22.344 274.66 22.304 274.98 22.304C275.481 22.304 275.86 22.44 276.116 22.712C276.372 22.984 276.5 23.352 276.5 23.816Z" fill="white"/>
<path d="M308.719 27.424H309.975V23.216L308.695 24.112L308.383 23.656L310.143 22.4H310.591V27.424H311.823V28H308.719V27.424ZM317.14 26.256H316.06V28H315.436V26.256H312.852V25.792L315.532 22.4H316.06V25.728H317.14V26.256ZM315.436 23.4L313.588 25.728H315.436V23.4Z" fill="white"/>
<path d="M328.719 27.424H329.975V23.216L328.695 24.112L328.383 23.656L330.143 22.4H330.591V27.424H331.823V28H328.719V27.424ZM334.548 27.536C334.751 27.536 334.937 27.512 335.108 27.464C335.279 27.4107 335.423 27.3333 335.54 27.232C335.663 27.1253 335.756 26.9947 335.82 26.84C335.889 26.6853 335.924 26.504 335.924 26.296C335.924 25.912 335.785 25.6213 335.508 25.424C335.236 25.2213 334.863 25.12 334.388 25.12L333.636 25.16V22.4H336.38V22.976H334.236V24.6L334.636 24.584C335.228 24.584 335.695 24.728 336.036 25.016C336.377 25.304 336.548 25.7147 336.548 26.248C336.548 26.5467 336.495 26.8107 336.388 27.04C336.287 27.2693 336.145 27.464 335.964 27.624C335.783 27.7787 335.567 27.896 335.316 27.976C335.071 28.056 334.801 28.096 334.508 28.096C334.348 28.096 334.196 28.0827 334.052 28.056C333.908 28.0347 333.777 28.008 333.66 27.976C333.543 27.9387 333.439 27.9013 333.348 27.864C333.263 27.8213 333.201 27.784 333.164 27.752L333.42 27.232C333.511 27.2853 333.649 27.3493 333.836 27.424C334.023 27.4987 334.26 27.536 334.548 27.536Z" fill="white"/>
<path d="M347.719 27.424H348.975V23.216L347.695 24.112L347.383 23.656L349.143 22.4H349.591V27.424H350.823V28H347.719V27.424ZM355.812 26.312C355.812 26.5413 355.769 26.7627 355.684 26.976C355.604 27.1893 355.484 27.3787 355.324 27.544C355.164 27.7093 354.967 27.8427 354.732 27.944C354.497 28.0453 354.225 28.096 353.916 28.096C353.628 28.096 353.367 28.0507 353.132 27.96C352.897 27.8693 352.695 27.7413 352.524 27.576C352.353 27.4053 352.22 27.1973 352.124 26.952C352.033 26.7067 351.988 26.432 351.988 26.128C351.988 25.6267 352.06 25.152 352.204 24.704C352.353 24.256 352.559 23.8613 352.82 23.52C353.087 23.1787 353.401 22.9013 353.764 22.688C354.132 22.4747 354.535 22.3467 354.972 22.304L355.084 22.816C354.748 22.8587 354.439 22.9573 354.156 23.112C353.879 23.2667 353.636 23.4587 353.428 23.688C353.22 23.9173 353.049 24.1707 352.916 24.448C352.788 24.7253 352.705 25.008 352.668 25.296C352.711 25.2267 352.772 25.1547 352.852 25.08C352.937 25.0053 353.036 24.9413 353.148 24.888C353.265 24.8293 353.393 24.7813 353.532 24.744C353.676 24.7067 353.831 24.688 353.996 24.688C354.279 24.688 354.532 24.728 354.756 24.808C354.98 24.8827 355.169 24.992 355.324 25.136C355.484 25.2747 355.604 25.4453 355.684 25.648C355.769 25.8453 355.812 26.0667 355.812 26.312ZM355.156 26.376C355.156 26.0027 355.052 25.7173 354.844 25.52C354.636 25.3227 354.316 25.224 353.884 25.224C353.729 25.224 353.585 25.2427 353.452 25.28C353.319 25.3173 353.199 25.368 353.092 25.432C352.985 25.4907 352.892 25.56 352.812 25.64C352.732 25.72 352.671 25.8 352.628 25.88C352.617 25.9547 352.612 26.0133 352.612 26.056C352.612 26.0987 352.612 26.1493 352.612 26.208C352.612 26.368 352.639 26.5307 352.692 26.696C352.745 26.856 352.825 27 352.932 27.128C353.044 27.256 353.183 27.36 353.348 27.44C353.513 27.52 353.708 27.56 353.932 27.56C354.113 27.56 354.279 27.528 354.428 27.464C354.577 27.4 354.705 27.3147 354.812 27.208C354.924 27.1013 355.009 26.976 355.068 26.832C355.127 26.688 355.156 26.536 355.156 26.376Z" fill="white"/>
<path d="M368.719 27.424H369.975V23.216L368.695 24.112L368.383 23.656L370.143 22.4H370.591V27.424H371.823V28H368.719V27.424ZM373.492 28L375.94 22.976H373.052V22.4H376.588V22.92L374.148 28H373.492Z" fill="white"/>
<path d="M388.719 27.424H389.975V23.216L388.695 24.112L388.383 23.656L390.143 22.4H390.591V27.424H391.823V28H388.719V27.424ZM393.1 26.64C393.1 25.9947 393.492 25.4747 394.276 25.08C394.127 25 393.988 24.9173 393.86 24.832C393.732 24.7467 393.62 24.6507 393.524 24.544C393.433 24.4373 393.361 24.3147 393.308 24.176C393.255 24.0373 393.228 23.8773 393.228 23.696C393.228 23.4987 393.268 23.3147 393.348 23.144C393.428 22.9733 393.543 22.8267 393.692 22.704C393.841 22.5813 394.023 22.4853 394.236 22.416C394.449 22.3413 394.687 22.304 394.948 22.304C395.193 22.304 395.415 22.336 395.612 22.4C395.815 22.464 395.985 22.5547 396.124 22.672C396.268 22.784 396.377 22.9173 396.452 23.072C396.527 23.2267 396.564 23.392 396.564 23.568C396.564 23.872 396.487 24.152 396.332 24.408C396.183 24.6587 395.94 24.888 395.604 25.096C395.759 25.176 395.903 25.2613 396.036 25.352C396.169 25.4427 396.284 25.544 396.38 25.656C396.481 25.768 396.559 25.896 396.612 26.04C396.671 26.1787 396.7 26.3387 396.7 26.52C396.7 26.744 396.66 26.9547 396.58 27.152C396.5 27.344 396.38 27.5093 396.22 27.648C396.065 27.7867 395.873 27.896 395.644 27.976C395.415 28.056 395.148 28.096 394.844 28.096C394.561 28.096 394.311 28.056 394.092 27.976C393.873 27.896 393.689 27.7893 393.54 27.656C393.396 27.5227 393.287 27.368 393.212 27.192C393.137 27.016 393.1 26.832 393.1 26.64ZM396.068 26.56C396.068 26.4053 396.031 26.2693 395.956 26.152C395.887 26.0293 395.791 25.92 395.668 25.824C395.551 25.728 395.415 25.64 395.26 25.56C395.105 25.48 394.945 25.4 394.78 25.32C394.396 25.5067 394.121 25.712 393.956 25.936C393.796 26.16 393.716 26.3707 393.716 26.568C393.716 26.7013 393.74 26.8293 393.788 26.952C393.841 27.0693 393.916 27.1733 394.012 27.264C394.113 27.3547 394.236 27.4267 394.38 27.48C394.529 27.5333 394.7 27.56 394.892 27.56C395.047 27.56 395.193 27.5387 395.332 27.496C395.476 27.4533 395.601 27.392 395.708 27.312C395.82 27.2267 395.908 27.1227 395.972 27C396.036 26.872 396.068 26.7253 396.068 26.56ZM393.852 23.672C393.852 23.8213 393.887 23.9547 393.956 24.072C394.025 24.1893 394.116 24.296 394.228 24.392C394.345 24.4827 394.479 24.568 394.628 24.648C394.777 24.7227 394.935 24.7973 395.1 24.872C395.383 24.6853 395.593 24.4987 395.732 24.312C395.876 24.1253 395.948 23.92 395.948 23.696C395.948 23.5627 395.919 23.4453 395.86 23.344C395.807 23.2373 395.732 23.1467 395.636 23.072C395.545 22.9973 395.439 22.9413 395.316 22.904C395.193 22.8613 395.065 22.84 394.932 22.84C394.761 22.84 394.609 22.864 394.476 22.912C394.343 22.96 394.231 23.024 394.14 23.104C394.049 23.184 393.977 23.2747 393.924 23.376C393.876 23.472 393.852 23.5707 393.852 23.672Z" fill="white"/>
<path d="M408.719 27.424H409.975V23.216L408.695 24.112L408.383 23.656L410.143 22.4H410.591V27.424H411.823V28H408.719V27.424ZM412.988 24.088C412.988 23.8427 413.028 23.6133 413.108 23.4C413.188 23.1813 413.308 22.992 413.468 22.832C413.633 22.6667 413.836 22.5387 414.076 22.448C414.316 22.352 414.596 22.304 414.916 22.304C415.215 22.304 415.481 22.352 415.716 22.448C415.951 22.544 416.148 22.68 416.308 22.856C416.473 23.0267 416.599 23.2373 416.684 23.488C416.769 23.7333 416.812 24.008 416.812 24.312C416.812 24.9093 416.737 25.4347 416.588 25.888C416.439 26.3413 416.231 26.7253 415.964 27.04C415.697 27.3547 415.38 27.6 415.012 27.776C414.649 27.952 414.255 28.0587 413.828 28.096L413.708 27.592C414.06 27.5547 414.375 27.4693 414.652 27.336C414.929 27.2027 415.169 27.032 415.372 26.824C415.575 26.616 415.74 26.376 415.868 26.104C415.996 25.832 416.084 25.5413 416.132 25.232C416.047 25.3227 415.959 25.4 415.868 25.464C415.783 25.5227 415.687 25.5707 415.58 25.608C415.473 25.6453 415.356 25.672 415.228 25.688C415.1 25.704 414.953 25.712 414.788 25.712C414.543 25.712 414.311 25.6747 414.092 25.6C413.873 25.5253 413.681 25.4187 413.516 25.28C413.356 25.136 413.228 24.9653 413.132 24.768C413.036 24.5653 412.988 24.3387 412.988 24.088ZM413.644 24.024C413.644 24.408 413.759 24.696 413.988 24.888C414.223 25.08 414.532 25.176 414.916 25.176C415.22 25.176 415.481 25.1307 415.7 25.04C415.924 24.944 416.081 24.8267 416.172 24.688C416.183 24.6133 416.188 24.5547 416.188 24.512C416.188 24.464 416.188 24.4107 416.188 24.352C416.188 24.1653 416.161 23.9813 416.108 23.8C416.06 23.6187 415.983 23.456 415.876 23.312C415.769 23.168 415.631 23.0533 415.46 22.968C415.295 22.8773 415.095 22.832 414.86 22.832C414.476 22.832 414.177 22.936 413.964 23.144C413.751 23.352 413.644 23.6453 413.644 24.024Z" fill="white"/>
<path d="M431.703 23.816C431.703 24.3067 431.471 24.8533 431.007 25.456C430.543 26.0587 429.895 26.7147 429.063 27.424H431.879V28H428.327V27.424C428.428 27.328 428.567 27.2027 428.743 27.048C428.919 26.8933 429.108 26.7227 429.311 26.536C429.514 26.344 429.719 26.1387 429.927 25.92C430.14 25.7013 430.332 25.4773 430.503 25.248C430.674 25.0187 430.812 24.7893 430.919 24.56C431.026 24.3307 431.079 24.1093 431.079 23.896C431.079 23.576 430.994 23.3253 430.823 23.144C430.658 22.9573 430.407 22.864 430.071 22.864C429.783 22.864 429.54 22.896 429.343 22.96C429.146 23.024 428.967 23.1173 428.807 23.24L428.535 22.8C428.775 22.6293 429.028 22.504 429.295 22.424C429.567 22.344 429.863 22.304 430.183 22.304C430.684 22.304 431.063 22.44 431.319 22.712C431.575 22.984 431.703 23.352 431.703 23.816ZM432.94 25.2C432.94 24.7467 432.98 24.3413 433.06 23.984C433.14 23.6213 433.26 23.3173 433.42 23.072C433.58 22.8213 433.783 22.632 434.028 22.504C434.273 22.3707 434.564 22.304 434.9 22.304C435.257 22.304 435.559 22.368 435.804 22.496C436.055 22.624 436.257 22.8107 436.412 23.056C436.567 23.3013 436.679 23.6053 436.748 23.968C436.817 24.3253 436.852 24.736 436.852 25.2C436.852 25.6533 436.812 26.0613 436.732 26.424C436.652 26.7813 436.532 27.0853 436.372 27.336C436.212 27.5813 436.009 27.7707 435.764 27.904C435.519 28.032 435.228 28.096 434.892 28.096C434.54 28.096 434.239 28.0267 433.988 27.888C433.743 27.744 433.54 27.544 433.38 27.288C433.225 27.032 433.113 26.728 433.044 26.376C432.975 26.0187 432.94 25.6267 432.94 25.2ZM436.196 25.2C436.196 24.9173 436.18 24.648 436.148 24.392L433.772 26.56C433.863 26.864 433.999 27.1067 434.18 27.288C434.361 27.4693 434.599 27.56 434.892 27.56C435.361 27.56 435.695 27.3653 435.892 26.976C436.095 26.5867 436.196 25.9947 436.196 25.2ZM433.604 25.2C433.604 25.3333 433.607 25.4613 433.612 25.584C433.623 25.7067 433.633 25.8267 433.644 25.944L436.028 23.784C435.937 23.496 435.801 23.2667 435.62 23.096C435.444 22.9253 435.204 22.84 434.9 22.84C434.425 22.84 434.089 23.0373 433.892 23.432C433.7 23.8213 433.604 24.4107 433.604 25.2Z" fill="white"/>
<path d="M288.719 27.424H289.975V23.216L288.695 24.112L288.383 23.656L290.143 22.4H290.591V27.424H291.823V28H288.719V27.424ZM294.484 27.544C294.697 27.544 294.892 27.5173 295.068 27.464C295.249 27.4053 295.407 27.3253 295.54 27.224C295.673 27.1227 295.777 27 295.852 26.856C295.927 26.712 295.964 26.552 295.964 26.376C295.964 26.008 295.833 25.7467 295.572 25.592C295.316 25.432 294.969 25.352 294.532 25.352H294.02V24.968L295.596 22.976H293.204V22.4H296.364V22.976L294.788 24.824H294.916C295.161 24.824 295.385 24.8587 295.588 24.928C295.791 24.9973 295.967 25.096 296.116 25.224C296.265 25.352 296.38 25.5067 296.46 25.688C296.545 25.8693 296.588 26.0747 296.588 26.304C296.588 26.592 296.532 26.848 296.42 27.072C296.308 27.296 296.156 27.4853 295.964 27.64C295.772 27.7893 295.545 27.904 295.284 27.984C295.028 28.0587 294.753 28.096 294.46 28.096C294.188 28.096 293.951 28.0747 293.748 28.032C293.551 27.9947 293.369 27.9467 293.204 27.888L293.364 27.328C293.503 27.392 293.665 27.4453 293.852 27.488C294.039 27.5253 294.249 27.544 294.484 27.544Z" fill="white"/>
</svg>
