<svg width="500" height="500" viewBox="0 0 500 500" fill="none" xmlns="http://www.w3.org/2000/svg">
<path fill-rule="evenodd" clip-rule="evenodd" d="M60 129H440.164C442.925 129 445.164 131.239 445.164 134V322.211C445.164 324.972 442.925 327.211 440.164 327.211H60C57.2386 327.211 55 324.972 55 322.211V134C55 131.239 57.2386 129 60 129ZM40 134C40 122.954 48.9543 114 60 114H440.164C451.21 114 460.164 122.954 460.164 134V322.211C460.164 333.257 451.21 342.211 440.164 342.211H262.879V372.07H314.066C318.189 372.07 321.531 375.412 321.531 379.535C321.531 383.658 318.189 387 314.066 387H185.031C180.909 387 177.566 383.658 177.566 379.535C177.566 375.412 180.909 372.07 185.031 372.07H236.219V342.211H60C48.9543 342.211 40 333.257 40 322.211V134Z" fill="white"/>
</svg>
