<svg width="127" height="140" viewBox="0 0 127 140" fill="none" xmlns="http://www.w3.org/2000/svg">
<path d="M113.342 51.5195C113.728 51.2149 114.272 51.2149 114.658 51.5195C114.949 51.7488 115.338 51.8104 115.685 51.6822C116.147 51.5117 116.665 51.6801 116.938 52.0891C117.143 52.397 117.494 52.5758 117.864 52.5611C118.356 52.5416 118.796 52.8618 118.93 53.3352C119.03 53.6915 119.308 53.97 119.665 54.0704C120.138 54.2037 120.458 54.6444 120.439 55.1358C120.424 55.5057 120.603 55.8566 120.911 56.0621C121.32 56.3352 121.488 56.8533 121.318 57.3147C121.19 57.6619 121.251 58.0509 121.48 58.3415C121.785 58.7276 121.785 59.2724 121.48 59.6585C121.251 59.9491 121.19 60.3381 121.318 60.6853C121.488 61.1467 121.32 61.6648 120.911 61.9379C120.603 62.1434 120.424 62.4943 120.439 62.8642C120.458 63.3556 120.138 63.7963 119.665 63.9296C119.308 64.03 119.03 64.3085 118.93 64.6648C118.796 65.1382 118.356 65.4584 117.864 65.4389C117.494 65.4242 117.143 65.603 116.938 65.9109C116.665 66.3199 116.147 66.4883 115.685 66.3178C115.338 66.1896 114.949 66.2512 114.658 66.4805C114.272 66.7851 113.728 66.7851 113.342 66.4805C113.051 66.2512 112.662 66.1896 112.315 66.3178C111.853 66.4883 111.335 66.3199 111.062 65.9109C110.857 65.603 110.506 65.4242 110.136 65.4389C109.644 65.4584 109.204 65.1382 109.07 64.6648C108.97 64.3085 108.692 64.03 108.335 63.9296C107.862 63.7963 107.542 63.3556 107.561 62.8642C107.576 62.4943 107.397 62.1434 107.089 61.9379C106.68 61.6648 106.512 61.1467 106.682 60.6853C106.81 60.3381 106.749 59.9491 106.52 59.6585C106.215 59.2724 106.215 58.7276 106.52 58.3415C106.749 58.0509 106.81 57.6619 106.682 57.3147C106.512 56.8533 106.68 56.3352 107.089 56.0621C107.397 55.8566 107.576 55.5057 107.561 55.1358C107.542 54.6444 107.862 54.2037 108.335 54.0704C108.692 53.97 108.97 53.6915 109.07 53.3352C109.204 52.8618 109.644 52.5416 110.136 52.5611C110.506 52.5758 110.857 52.397 111.062 52.0891C111.335 51.6801 111.853 51.5117 112.315 51.6822C112.662 51.8104 113.051 51.7488 113.342 51.5195Z" fill="#353535"/>
<path d="M126.5 49.5H15.5V140H27.5L47.5 59H126.5V49.5Z" fill="#6B6B6B"/>
<path d="M15.5 16V24.5H126.5V16H15.5Z" fill="#6B6B6B"/>
<path d="M0 0H3C3 0 2.5 12.5 4.5 14.5C6.5 16.5 15.5 16 15.5 16V24.5H0V0Z" fill="#6B6B6B"/>
</svg>
