<svg width="242" height="278" viewBox="0 0 242 278" fill="none" xmlns="http://www.w3.org/2000/svg">
<mask id="path-1-inside-1" fill="white">
<path fill-rule="evenodd" clip-rule="evenodd" d="M241.378 69.5L121 0L0.622467 69.5V208.5L121 278L241.378 208.5V69.5ZM120 183C144.301 183 164 163.301 164 139C164 114.699 144.301 95 120 95C95.6995 95 76 114.699 76 139C76 163.301 95.6995 183 120 183Z"/>
</mask>
<path fill-rule="evenodd" clip-rule="evenodd" d="M241.378 69.5L121 0L0.622467 69.5V208.5L121 278L241.378 208.5V69.5ZM120 183C144.301 183 164 163.301 164 139C164 114.699 144.301 95 120 95C95.6995 95 76 114.699 76 139C76 163.301 95.6995 183 120 183Z" fill="url(#paint0_linear)"/>
<path d="M121 0L123.5 -4.33013L121 -5.7735L118.5 -4.33013L121 0ZM241.378 69.5H246.378V66.6132L243.878 65.1699L241.378 69.5ZM0.622467 69.5L-1.87753 65.1699L-4.37753 66.6132V69.5H0.622467ZM0.622467 208.5H-4.37753V211.387L-1.87753 212.83L0.622467 208.5ZM121 278L118.5 282.33L121 283.774L123.5 282.33L121 278ZM241.378 208.5L243.878 212.83L246.378 211.387V208.5H241.378ZM118.5 4.33013L238.878 73.8301L243.878 65.1699L123.5 -4.33013L118.5 4.33013ZM3.12247 73.8301L123.5 4.33013L118.5 -4.33013L-1.87753 65.1699L3.12247 73.8301ZM5.62247 208.5V69.5H-4.37753V208.5H5.62247ZM123.5 273.67L3.12247 204.17L-1.87753 212.83L118.5 282.33L123.5 273.67ZM238.878 204.17L118.5 273.67L123.5 282.33L243.878 212.83L238.878 204.17ZM236.378 69.5V208.5H246.378V69.5H236.378ZM159 139C159 160.539 141.539 178 120 178V188C147.062 188 169 166.062 169 139H159ZM120 100C141.539 100 159 117.461 159 139H169C169 111.938 147.062 90 120 90V100ZM81 139C81 117.461 98.4609 100 120 100V90C92.938 90 71 111.938 71 139H81ZM120 178C98.4609 178 81 160.539 81 139H71C71 166.062 92.938 188 120 188V178Z" fill="#3A3A3A" mask="url(#path-1-inside-1)"/>
<defs>
<linearGradient id="paint0_linear" x1="121" y1="0" x2="121" y2="278" gradientUnits="userSpaceOnUse">
<stop stop-color="#5B5B5B"/>
<stop offset="1" stop-color="#979797"/>
</linearGradient>
</defs>
</svg>
